<svg id="g6x0vy7cwo0w" width="100%" xmlns="http://www.w3.org/2000/svg" style="max-width: 1143.5px;" viewBox="-50 -10 1143.5 1029" role="graphics-document document" aria-roledescription="sequence"><g><rect x="882.5" y="943" fill="#eaeaea" stroke="#666" width="161" height="65" name="B" rx="3" ry="3" class="actor actor-bottom"></rect><text x="963" y="975.5" dominant-baseline="central" alignment-baseline="central" class="actor actor-box" style="text-anchor: middle; font-size: 16px; font-weight: 400;"><tspan x="963" dy="0">Armazenamento local</tspan></text></g><g><rect x="625" y="943" fill="#eaeaea" stroke="#666" width="150" height="65" name="A" rx="3" ry="3" class="actor actor-bottom"></rect><text x="700" y="975.5" dominant-baseline="central" alignment-baseline="central" class="actor actor-box" style="text-anchor: middle; font-size: 16px; font-weight: 400;"><tspan x="700" dy="0">API simulada</tspan></text></g><g><rect x="340" y="943" fill="#eaeaea" stroke="#666" width="150" height="65" name="T" rx="3" ry="3" class="actor actor-bottom"></rect><text x="415" y="975.5" dominant-baseline="central" alignment-baseline="central" class="actor actor-box" style="text-anchor: middle; font-size: 16px; font-weight: 400;"><tspan x="415" dy="0">App (telas)</tspan></text></g><g></g><g><line id="actor3" x1="963" y1="65" x2="963" y2="943" class="actor-line 200" stroke-width="0.5px" stroke="#999" name="B" data-et="life-line" data-id="B"></line><g id="root-3" data-et="participant" data-type="participant" data-id="B"><rect x="882.5" y="0" fill="#eaeaea" stroke="#666" width="161" height="65" name="B" rx="3" ry="3" class="actor actor-top"></rect><text x="963" y="32.5" dominant-baseline="central" alignment-baseline="central" class="actor actor-box" style="text-anchor: middle; font-size: 16px; font-weight: 400;"><tspan x="963" dy="0">Armazenamento local</tspan></text></g></g><g><line id="actor2" x1="700" y1="65" x2="700" y2="943" class="actor-line 200" stroke-width="0.5px" stroke="#999" name="A" data-et="life-line" data-id="A"></line><g id="root-2" data-et="participant" data-type="participant" data-id="A"><rect x="625" y="0" fill="#eaeaea" stroke="#666" width="150" height="65" name="A" rx="3" ry="3" class="actor actor-top"></rect><text x="700" y="32.5" dominant-baseline="central" alignment-baseline="central" class="actor actor-box" style="text-anchor: middle; font-size: 16px; font-weight: 400;"><tspan x="700" dy="0">API simulada</tspan></text></g></g><g><line id="actor1" x1="415" y1="65" x2="415" y2="943" class="actor-line 200" stroke-width="0.5px" stroke="#999" name="T" data-et="life-line" data-id="T"></line><g id="root-1" data-et="participant" data-type="participant" data-id="T"><rect x="340" y="0" fill="#eaeaea" stroke="#666" width="150" height="65" name="T" rx="3" ry="3" class="actor actor-top"></rect><text x="415" y="32.5" dominant-baseline="central" alignment-baseline="central" class="actor actor-box" style="text-anchor: middle; font-size: 16px; font-weight: 400;"><tspan x="415" dy="0">App (telas)</tspan></text></g></g><g><line id="actor0" x1="75" y1="80" x2="75" y2="943" class="actor-line 200" stroke-width="0.5px" stroke="#999" name="U" data-et="life-line" data-id="U"></line></g><style>#g6x0vy7cwo0w{font-family:Arial;font-size:16px;fill:#1B3148;}@keyframes edge-animation-frame{from{stroke-dashoffset:0;}}@keyframes dash{to{stroke-dashoffset:0;}}#g6x0vy7cwo0w .edge-animation-slow{stroke-dasharray:9,5!important;stroke-dashoffset:900;animation:dash 50s linear infinite;stroke-linecap:round;}#g6x0vy7cwo0w .edge-animation-fast{stroke-dasharray:9,5!important;stroke-dashoffset:900;animation:dash 20s linear infinite;stroke-linecap:round;}#g6x0vy7cwo0w .error-icon{fill:hsl(30, 62.5%, 98.7254901961%);}#g6x0vy7cwo0w .error-text{fill:rgb(1.21875, 3.2499999999, 5.2812499999);stroke:rgb(1.21875, 3.2499999999, 5.2812499999);}#g6x0vy7cwo0w .edge-thickness-normal{stroke-width:1px;}#g6x0vy7cwo0w .edge-thickness-thick{stroke-width:3.5px;}#g6x0vy7cwo0w .edge-pattern-solid{stroke-dasharray:0;}#g6x0vy7cwo0w .edge-thickness-invisible{stroke-width:0;fill:none;}#g6x0vy7cwo0w .edge-pattern-dashed{stroke-dasharray:3;}#g6x0vy7cwo0w .edge-pattern-dotted{stroke-dasharray:2;}#g6x0vy7cwo0w .marker{fill:#285A84;stroke:#285A84;}#g6x0vy7cwo0w .marker.cross{stroke:#285A84;}#g6x0vy7cwo0w svg{font-family:Arial;font-size:16px;}#g6x0vy7cwo0w p{margin:0;}#g6x0vy7cwo0w .actor{stroke:#4D8FCB;fill:#E5EFF9;stroke-width:1;}#g6x0vy7cwo0w rect.actor.outer-path[data-look="neo"]{filter:drop-shadow( 1px 2px 2px rgba(185,185,185,1));}#g6x0vy7cwo0w rect.note[data-look="neo"]{stroke:#F2BE2E;fill:#FFF7DE;filter:drop-shadow( 1px 2px 2px rgba(185,185,185,1));}#g6x0vy7cwo0w text.actor&gt;tspan{fill:#1B3148;stroke:none;}#g6x0vy7cwo0w .actor-line{stroke:#4D8FCB;}#g6x0vy7cwo0w .innerArc{stroke-width:1.5;stroke-dasharray:none;}#g6x0vy7cwo0w .messageLine0{stroke-width:1.5;stroke-dasharray:none;stroke:#1B3148;}#g6x0vy7cwo0w .messageLine1{stroke-width:1.5;stroke-dasharray:2,2;stroke:#1B3148;}#g6x0vy7cwo0w [id$="-arrowhead"] path{fill:#1B3148;stroke:#1B3148;}#g6x0vy7cwo0w .sequenceNumber{fill:#d7a57b;}#g6x0vy7cwo0w [id$="-sequencenumber"]{fill:#1B3148;}#g6x0vy7cwo0w [id$="-crosshead"] path{fill:#1B3148;stroke:#1B3148;}#g6x0vy7cwo0w .messageText{fill:#1B3148;stroke:none;}#g6x0vy7cwo0w .labelBox{stroke:#4D8FCB;fill:#E5EFF9;filter:none;}#g6x0vy7cwo0w .labelText,#g6x0vy7cwo0w .labelText&gt;tspan{fill:#1B3148;stroke:none;}#g6x0vy7cwo0w .loopText,#g6x0vy7cwo0w .loopText&gt;tspan{fill:#1B3148;stroke:none;}#g6x0vy7cwo0w .sectionTitle,#g6x0vy7cwo0w .sectionTitle&gt;tspan{fill:#1B3148;stroke:none;}#g6x0vy7cwo0w .loopLine{stroke-width:2px;stroke-dasharray:2,2;stroke:#4D8FCB;fill:#4D8FCB;}#g6x0vy7cwo0w .note{stroke:#F2BE2E;fill:#FFF7DE;}#g6x0vy7cwo0w .noteText,#g6x0vy7cwo0w .noteText&gt;tspan{fill:#333;stroke:none;font-weight:normal;}#g6x0vy7cwo0w .activation0{fill:hsl(90, 62.5%, 93.7254901961%);stroke:hsl(90, 62.5%, 83.7254901961%);}#g6x0vy7cwo0w .activation1{fill:hsl(90, 62.5%, 93.7254901961%);stroke:hsl(90, 62.5%, 83.7254901961%);}#g6x0vy7cwo0w .activation2{fill:hsl(90, 62.5%, 93.7254901961%);stroke:hsl(90, 62.5%, 83.7254901961%);}#g6x0vy7cwo0w .actorPopupMenu{position:absolute;}#g6x0vy7cwo0w .actorPopupMenuPanel{position:absolute;fill:#E5EFF9;box-shadow:0px 8px 16px 0px rgba(0,0,0,0.2);filter:drop-shadow(3px 5px 2px rgb(0 0 0 / 0.4));}#g6x0vy7cwo0w .actor-man circle,#g6x0vy7cwo0w line{fill:#E5EFF9;stroke-width:2px;}#g6x0vy7cwo0w g rect.rect{filter:drop-shadow( 1px 2px 2px rgba(185,185,185,1));stroke:#4D8FCB;}#g6x0vy7cwo0w .node .neo-node{stroke:#4D8FCB;}#g6x0vy7cwo0w [data-look="neo"].node rect,#g6x0vy7cwo0w [data-look="neo"].cluster rect,#g6x0vy7cwo0w [data-look="neo"].node polygon{stroke:url(#g6x0vy7cwo0w-gradient);filter:drop-shadow( 1px 2px 2px rgba(185,185,185,1));}#g6x0vy7cwo0w [data-look="neo"].swimlane.cluster rect{filter:none;}#g6x0vy7cwo0w [data-look="neo"].node path{stroke:url(#g6x0vy7cwo0w-gradient);stroke-width:1px;}#g6x0vy7cwo0w [data-look="neo"].node .outer-path{filter:drop-shadow( 1px 2px 2px rgba(185,185,185,1));}#g6x0vy7cwo0w [data-look="neo"].node .neo-line path{stroke:#4D8FCB;filter:none;}#g6x0vy7cwo0w [data-look="neo"].node circle{stroke:url(#g6x0vy7cwo0w-gradient);filter:drop-shadow( 1px 2px 2px rgba(185,185,185,1));}#g6x0vy7cwo0w [data-look="neo"].node circle .state-start{fill:#000000;}#g6x0vy7cwo0w [data-look="neo"].icon-shape .icon{fill:url(#g6x0vy7cwo0w-gradient);filter:drop-shadow( 1px 2px 2px rgba(185,185,185,1));}#g6x0vy7cwo0w [data-look="neo"].icon-shape .icon-neo path{stroke:url(#g6x0vy7cwo0w-gradient);filter:drop-shadow( 1px 2px 2px rgba(185,185,185,1));}#g6x0vy7cwo0w :root{--mermaid-font-family:"trebuchet ms",verdana,arial,sans-serif;}</style><g></g><defs><symbol id="g6x0vy7cwo0w-computer" width="24" height="24"><path transform="scale(.5)" d="M2 2v13h20v-13h-20zm18 11h-16v-9h16v9zm-10.228 6l.466-1h3.524l.467 1h-4.457zm14.228 3h-24l2-6h2.104l-1.33 4h18.45l-1.297-4h2.073l2 6zm-5-10h-14v-7h14v7z"></path></symbol></defs><defs><symbol id="g6x0vy7cwo0w-database" fill-rule="evenodd" clip-rule="evenodd"><path transform="scale(.5)" d="M12.258.001l.256.004.255.005.253.008.251.01.249.012.247.015.246.016.242.019.241.02.239.023.236.024.233.027.231.028.229.031.225.032.223.034.22.036.217.038.214.04.211.041.208.043.205.045.201.046.198.048.194.05.191.051.187.053.183.054.18.056.175.057.172.059.168.06.163.061.16.063.155.064.15.066.074.033.073.033.071.034.07.034.069.035.068.035.067.035.066.035.064.036.064.036.062.036.06.036.06.037.058.037.058.037.055.038.055.038.053.038.052.038.051.039.05.039.048.039.047.039.045.04.044.04.043.04.041.04.04.041.039.041.037.041.036.041.034.041.033.042.032.042.03.042.029.042.027.042.026.043.024.043.023.043.021.043.02.043.018.044.017.043.015.044.013.044.012.044.011.045.009.044.007.045.006.045.004.045.002.045.001.045v17l-.001.045-.002.045-.004.045-.006.045-.007.045-.009.044-.011.045-.012.044-.013.044-.015.044-.017.043-.018.044-.02.043-.021.043-.023.043-.024.043-.026.043-.027.042-.029.042-.03.042-.032.042-.033.042-.034.041-.036.041-.037.041-.039.041-.04.041-.041.04-.043.04-.044.04-.045.04-.047.039-.048.039-.05.039-.051.039-.052.038-.053.038-.055.038-.055.038-.058.037-.058.037-.06.037-.06.036-.062.036-.064.036-.064.036-.066.035-.067.035-.068.035-.069.035-.07.034-.071.034-.073.033-.074.033-.15.066-.155.064-.16.063-.163.061-.168.06-.172.059-.175.057-.18.056-.183.054-.187.053-.191.051-.194.05-.198.048-.201.046-.205.045-.208.043-.211.041-.214.04-.217.038-.22.036-.223.034-.225.032-.229.031-.231.028-.233.027-.236.024-.239.023-.241.02-.242.019-.246.016-.247.015-.249.012-.251.01-.253.008-.255.005-.256.004-.258.001-.258-.001-.256-.004-.255-.005-.253-.008-.251-.01-.249-.012-.247-.015-.245-.016-.243-.019-.241-.02-.238-.023-.236-.024-.234-.027-.231-.028-.228-.031-.226-.032-.223-.034-.22-.036-.217-.038-.214-.04-.211-.041-.208-.043-.204-.045-.201-.046-.198-.048-.195-.05-.19-.051-.187-.053-.184-.054-.179-.056-.176-.057-.172-.059-.167-.06-.164-.061-.159-.063-.155-.064-.151-.066-.074-.033-.072-.033-.072-.034-.07-.034-.069-.035-.068-.035-.067-.035-.066-.035-.064-.036-.063-.036-.062-.036-.061-.036-.06-.037-.058-.037-.057-.037-.056-.038-.055-.038-.053-.038-.052-.038-.051-.039-.049-.039-.049-.039-.046-.039-.046-.04-.044-.04-.043-.04-.041-.04-.04-.041-.039-.041-.037-.041-.036-.041-.034-.041-.033-.042-.032-.042-.03-.042-.029-.042-.027-.042-.026-.043-.024-.043-.023-.043-.021-.043-.02-.043-.018-.044-.017-.043-.015-.044-.013-.044-.012-.044-.011-.045-.009-.044-.007-.045-.006-.045-.004-.045-.002-.045-.001-.045v-17l.001-.045.002-.045.004-.045.006-.045.007-.045.009-.044.011-.045.012-.044.013-.044.015-.044.017-.043.018-.044.02-.043.021-.043.023-.043.024-.043.026-.043.027-.042.029-.042.03-.042.032-.042.033-.042.034-.041.036-.041.037-.041.039-.041.04-.041.041-.04.043-.04.044-.04.046-.04.046-.039.049-.039.049-.039.051-.039.052-.038.053-.038.055-.038.056-.038.057-.037.058-.037.06-.037.061-.036.062-.036.063-.036.064-.036.066-.035.067-.035.068-.035.069-.035.07-.034.072-.034.072-.033.074-.033.151-.066.155-.064.159-.063.164-.061.167-.06.172-.059.176-.057.179-.056.184-.054.187-.053.19-.051.195-.05.198-.048.201-.046.204-.045.208-.043.211-.041.214-.04.217-.038.22-.036.223-.034.226-.032.228-.031.231-.028.234-.027.236-.024.238-.023.241-.02.243-.019.245-.016.247-.015.249-.012.251-.01.253-.008.255-.005.256-.004.258-.001.258.001zm-9.258 20.499v.01l.001.021.003.021.004.022.005.021.006.022.007.022.009.023.01.022.011.023.012.023.013.023.015.023.016.024.017.023.018.024.019.024.021.024.022.025.023.024.024.025.052.049.056.05.061.051.066.051.07.051.075.051.079.052.084.052.088.052.092.052.097.052.102.051.105.052.11.052.114.051.119.051.123.051.127.05.131.05.135.05.139.048.144.049.147.047.152.047.155.047.16.045.163.045.167.043.171.043.176.041.178.041.183.039.187.039.19.037.194.035.197.035.202.033.204.031.209.03.212.029.216.027.219.025.222.024.226.021.23.02.233.018.236.016.24.015.243.012.246.01.249.008.253.005.256.004.259.001.26-.001.257-.004.254-.005.25-.008.247-.011.244-.012.241-.014.237-.016.233-.018.231-.021.226-.021.224-.024.22-.026.216-.027.212-.028.21-.031.205-.031.202-.034.198-.034.194-.036.191-.037.187-.039.183-.04.179-.04.175-.042.172-.043.168-.044.163-.045.16-.046.155-.046.152-.047.148-.048.143-.049.139-.049.136-.05.131-.05.126-.05.123-.051.118-.052.114-.051.11-.052.106-.052.101-.052.096-.052.092-.052.088-.053.083-.051.079-.052.074-.052.07-.051.065-.051.06-.051.056-.05.051-.05.023-.024.023-.025.021-.024.02-.024.019-.024.018-.024.017-.024.015-.023.014-.024.013-.023.012-.023.01-.023.01-.022.008-.022.006-.022.006-.022.004-.022.004-.021.001-.021.001-.021v-4.127l-.077.055-.08.053-.083.054-.085.053-.087.052-.09.052-.093.051-.095.05-.097.05-.1.049-.102.049-.105.048-.106.047-.109.047-.111.046-.114.045-.115.045-.118.044-.12.043-.122.042-.124.042-.126.041-.128.04-.13.04-.132.038-.134.038-.135.037-.138.037-.139.035-.142.035-.143.034-.144.033-.147.032-.148.031-.15.03-.151.03-.153.029-.154.027-.156.027-.158.026-.159.025-.161.024-.162.023-.163.022-.165.021-.166.02-.167.019-.169.018-.169.017-.171.016-.173.015-.173.014-.175.013-.175.012-.177.011-.178.01-.179.008-.179.008-.181.006-.182.005-.182.004-.184.003-.184.002h-.37l-.184-.002-.184-.003-.182-.004-.182-.005-.181-.006-.179-.008-.179-.008-.178-.01-.176-.011-.176-.012-.175-.013-.173-.014-.172-.015-.171-.016-.17-.017-.169-.018-.167-.019-.166-.02-.165-.021-.163-.022-.162-.023-.161-.024-.159-.025-.157-.026-.156-.027-.155-.027-.153-.029-.151-.03-.15-.03-.148-.031-.146-.032-.145-.033-.143-.034-.141-.035-.14-.035-.137-.037-.136-.037-.134-.038-.132-.038-.13-.04-.128-.04-.126-.041-.124-.042-.122-.042-.12-.044-.117-.043-.116-.045-.113-.045-.112-.046-.109-.047-.106-.047-.105-.048-.102-.049-.1-.049-.097-.05-.095-.05-.093-.052-.09-.051-.087-.052-.085-.053-.083-.054-.08-.054-.077-.054v4.127zm0-5.654v.011l.001.021.003.021.004.021.005.022.006.022.007.022.009.022.01.022.011.023.012.023.013.023.015.024.016.023.017.024.018.024.019.024.021.024.022.024.023.025.024.024.052.05.056.05.061.05.066.051.07.051.075.052.079.051.084.052.088.052.092.052.097.052.102.052.105.052.11.051.114.051.119.052.123.05.127.051.131.05.135.049.139.049.144.048.147.048.152.047.155.046.16.045.163.045.167.044.171.042.176.042.178.04.183.04.187.038.19.037.194.036.197.034.202.033.204.032.209.03.212.028.216.027.219.025.222.024.226.022.23.02.233.018.236.016.24.014.243.012.246.01.249.008.253.006.256.003.259.001.26-.001.257-.003.254-.006.25-.008.247-.01.244-.012.241-.015.237-.016.233-.018.231-.02.226-.022.224-.024.22-.025.216-.027.212-.029.21-.03.205-.032.202-.033.198-.035.194-.036.191-.037.187-.039.183-.039.179-.041.175-.042.172-.043.168-.044.163-.045.16-.045.155-.047.152-.047.148-.048.143-.048.139-.05.136-.049.131-.05.126-.051.123-.051.118-.051.114-.052.11-.052.106-.052.101-.052.096-.052.092-.052.088-.052.083-.052.079-.052.074-.051.07-.052.065-.051.06-.05.056-.051.051-.049.023-.025.023-.024.021-.025.02-.024.019-.024.018-.024.017-.024.015-.023.014-.023.013-.024.012-.022.01-.023.01-.023.008-.022.006-.022.006-.022.004-.021.004-.022.001-.021.001-.021v-4.139l-.077.054-.08.054-.083.054-.085.052-.087.053-.09.051-.093.051-.095.051-.097.05-.1.049-.102.049-.105.048-.106.047-.109.047-.111.046-.114.045-.115.044-.118.044-.12.044-.122.042-.124.042-.126.041-.128.04-.13.039-.132.039-.134.038-.135.037-.138.036-.139.036-.142.035-.143.033-.144.033-.147.033-.148.031-.15.03-.151.03-.153.028-.154.028-.156.027-.158.026-.159.025-.161.024-.162.023-.163.022-.165.021-.166.02-.167.019-.169.018-.169.017-.171.016-.173.015-.173.014-.175.013-.175.012-.177.011-.178.009-.179.009-.179.007-.181.007-.182.005-.182.004-.184.003-.184.002h-.37l-.184-.002-.184-.003-.182-.004-.182-.005-.181-.007-.179-.007-.179-.009-.178-.009-.176-.011-.176-.012-.175-.013-.173-.014-.172-.015-.171-.016-.17-.017-.169-.018-.167-.019-.166-.02-.165-.021-.163-.022-.162-.023-.161-.024-.159-.025-.157-.026-.156-.027-.155-.028-.153-.028-.151-.03-.15-.03-.148-.031-.146-.033-.145-.033-.143-.033-.141-.035-.14-.036-.137-.036-.136-.037-.134-.038-.132-.039-.13-.039-.128-.04-.126-.041-.124-.042-.122-.043-.12-.043-.117-.044-.116-.044-.113-.046-.112-.046-.109-.046-.106-.047-.105-.048-.102-.049-.1-.049-.097-.05-.095-.051-.093-.051-.09-.051-.087-.053-.085-.052-.083-.054-.08-.054-.077-.054v4.139zm0-5.666v.011l.001.02.003.022.004.021.005.022.006.021.007.022.009.023.01.022.011.023.012.023.013.023.015.023.016.024.017.024.018.023.019.024.021.025.022.024.023.024.024.025.052.05.056.05.061.05.066.051.07.051.075.052.079.051.084.052.088.052.092.052.097.052.102.052.105.051.11.052.114.051.119.051.123.051.127.05.131.05.135.05.139.049.144.048.147.048.152.047.155.046.16.045.163.045.167.043.171.043.176.042.178.04.183.04.187.038.19.037.194.036.197.034.202.033.204.032.209.03.212.028.216.027.219.025.222.024.226.021.23.02.233.018.236.017.24.014.243.012.246.01.249.008.253.006.256.003.259.001.26-.001.257-.003.254-.006.25-.008.247-.01.244-.013.241-.014.237-.016.233-.018.231-.02.226-.022.224-.024.22-.025.216-.027.212-.029.21-.03.205-.032.202-.033.198-.035.194-.036.191-.037.187-.039.183-.039.179-.041.175-.042.172-.043.168-.044.163-.045.16-.045.155-.047.152-.047.148-.048.143-.049.139-.049.136-.049.131-.051.126-.05.123-.051.118-.052.114-.051.11-.052.106-.052.101-.052.096-.052.092-.052.088-.052.083-.052.079-.052.074-.052.07-.051.065-.051.06-.051.056-.05.051-.049.023-.025.023-.025.021-.024.02-.024.019-.024.018-.024.017-.024.015-.023.014-.024.013-.023.012-.023.01-.022.01-.023.008-.022.006-.022.006-.022.004-.022.004-.021.001-.021.001-.021v-4.153l-.077.054-.08.054-.083.053-.085.053-.087.053-.09.051-.093.051-.095.051-.097.05-.1.049-.102.048-.105.048-.106.048-.109.046-.111.046-.114.046-.115.044-.118.044-.12.043-.122.043-.124.042-.126.041-.128.04-.13.039-.132.039-.134.038-.135.037-.138.036-.139.036-.142.034-.143.034-.144.033-.147.032-.148.032-.15.03-.151.03-.153.028-.154.028-.156.027-.158.026-.159.024-.161.024-.162.023-.163.023-.165.021-.166.02-.167.019-.169.018-.169.017-.171.016-.173.015-.173.014-.175.013-.175.012-.177.01-.178.01-.179.009-.179.007-.181.006-.182.006-.182.004-.184.003-.184.001-.185.001-.185-.001-.184-.001-.184-.003-.182-.004-.182-.006-.181-.006-.179-.007-.179-.009-.178-.01-.176-.01-.176-.012-.175-.013-.173-.014-.172-.015-.171-.016-.17-.017-.169-.018-.167-.019-.166-.02-.165-.021-.163-.023-.162-.023-.161-.024-.159-.024-.157-.026-.156-.027-.155-.028-.153-.028-.151-.03-.15-.03-.148-.032-.146-.032-.145-.033-.143-.034-.141-.034-.14-.036-.137-.036-.136-.037-.134-.038-.132-.039-.13-.039-.128-.041-.126-.041-.124-.041-.122-.043-.12-.043-.117-.044-.116-.044-.113-.046-.112-.046-.109-.046-.106-.048-.105-.048-.102-.048-.1-.05-.097-.049-.095-.051-.093-.051-.09-.052-.087-.052-.085-.053-.083-.053-.08-.054-.077-.054v4.153zm8.74-8.179l-.257.004-.254.005-.25.008-.247.011-.244.012-.241.014-.237.016-.233.018-.231.021-.226.022-.224.023-.22.026-.216.027-.212.028-.21.031-.205.032-.202.033-.198.034-.194.036-.191.038-.187.038-.183.04-.179.041-.175.042-.172.043-.168.043-.163.045-.16.046-.155.046-.152.048-.148.048-.143.048-.139.049-.136.05-.131.05-.126.051-.123.051-.118.051-.114.052-.11.052-.106.052-.101.052-.096.052-.092.052-.088.052-.083.052-.079.052-.074.051-.07.052-.065.051-.06.05-.056.05-.051.05-.023.025-.023.024-.021.024-.02.025-.019.024-.018.024-.017.023-.015.024-.014.023-.013.023-.012.023-.01.023-.01.022-.008.022-.006.023-.006.021-.004.022-.004.021-.001.021-.001.021.001.021.001.021.004.021.004.022.006.021.006.023.008.022.01.022.01.023.012.023.013.023.014.023.015.024.017.023.018.024.019.024.02.025.021.024.023.024.023.025.051.05.056.05.06.05.065.051.07.052.074.051.079.052.083.052.088.052.092.052.096.052.101.052.106.052.11.052.114.052.118.051.123.051.126.051.131.05.136.05.139.049.143.048.148.048.152.048.155.046.16.046.163.045.168.043.172.043.175.042.179.041.183.04.187.038.191.038.194.036.198.034.202.033.205.032.21.031.212.028.216.027.22.026.224.023.226.022.231.021.233.018.237.016.241.014.244.012.247.011.25.008.254.005.257.004.26.001.26-.001.257-.004.254-.005.25-.008.247-.011.244-.012.241-.014.237-.016.233-.018.231-.021.226-.022.224-.023.22-.026.216-.027.212-.028.21-.031.205-.032.202-.033.198-.034.194-.036.191-.038.187-.038.183-.04.179-.041.175-.042.172-.043.168-.043.163-.045.16-.046.155-.046.152-.048.148-.048.143-.048.139-.049.136-.05.131-.05.126-.051.123-.051.118-.051.114-.052.11-.052.106-.052.101-.052.096-.052.092-.052.088-.052.083-.052.079-.052.074-.051.07-.052.065-.051.06-.05.056-.05.051-.05.023-.025.023-.024.021-.024.02-.025.019-.024.018-.024.017-.023.015-.024.014-.023.013-.023.012-.023.01-.023.01-.022.008-.022.006-.023.006-.021.004-.022.004-.021.001-.021.001-.021-.001-.021-.001-.021-.004-.021-.004-.022-.006-.021-.006-.023-.008-.022-.01-.022-.01-.023-.012-.023-.013-.023-.014-.023-.015-.024-.017-.023-.018-.024-.019-.024-.02-.025-.021-.024-.023-.024-.023-.025-.051-.05-.056-.05-.06-.05-.065-.051-.07-.052-.074-.051-.079-.052-.083-.052-.088-.052-.092-.052-.096-.052-.101-.052-.106-.052-.11-.052-.114-.052-.118-.051-.123-.051-.126-.051-.131-.05-.136-.05-.139-.049-.143-.048-.148-.048-.152-.048-.155-.046-.16-.046-.163-.045-.168-.043-.172-.043-.175-.042-.179-.041-.183-.04-.187-.038-.191-.038-.194-.036-.198-.034-.202-.033-.205-.032-.21-.031-.212-.028-.216-.027-.22-.026-.224-.023-.226-.022-.231-.021-.233-.018-.237-.016-.241-.014-.244-.012-.247-.011-.25-.008-.254-.005-.257-.004-.26-.001-.26.001z"></path></symbol></defs><defs><symbol id="g6x0vy7cwo0w-clock" width="24" height="24"><path transform="scale(.5)" d="M12 2c5.514 0 10 4.486 10 10s-4.486 10-10 10-10-4.486-10-10 4.486-10 10-10zm0-2c-6.627 0-12 5.373-12 12s5.373 12 12 12 12-5.373 12-12-5.373-12-12-12zm5.848 12.459c.202.038.202.333.001.372-1.907.361-6.045 1.111-6.547 1.111-.719 0-1.301-.582-1.301-1.301 0-.512.77-5.447 1.125-7.445.034-.192.312-.181.343.014l.985 6.238 5.394 1.011z"></path></symbol></defs><defs><marker id="g6x0vy7cwo0w-arrowhead" refX="7.9" refY="5" markerUnits="userSpaceOnUse" markerWidth="12" markerHeight="12" orient="auto-start-reverse"><path d="M -1 0 L 10 5 L 0 10 z"></path></marker></defs><defs><marker id="g6x0vy7cwo0w-crosshead" markerWidth="15" markerHeight="8" orient="auto" refX="4" refY="4.5"><path fill="none" stroke="#000000" stroke-width="1pt" d="M 1,2 L 6,7 M 6,2 L 1,7" style="stroke-dasharray: 0, 0;"></path></marker></defs><defs><marker id="g6x0vy7cwo0w-filled-head" refX="15.5" refY="7" markerWidth="20" markerHeight="28" orient="auto"><path d="M 18,7 L9,13 L14,7 L9,1 Z"></path></marker></defs><defs><marker id="g6x0vy7cwo0w-sequencenumber" refX="15" refY="15" markerWidth="60" markerHeight="40" orient="auto"><circle cx="15" cy="15" r="6"></circle></marker></defs><defs><marker id="g6x0vy7cwo0w-solidTopArrowHead" refX="7.9" refY="7.25" markerUnits="userSpaceOnUse" markerWidth="12" markerHeight="12" orient="auto-start-reverse"><path d="M 0 0 L 10 8 L 0 8 z"></path></marker></defs><defs><marker id="g6x0vy7cwo0w-solidBottomArrowHead" refX="7.9" refY="0.75" markerUnits="userSpaceOnUse" markerWidth="12" markerHeight="12" orient="auto-start-reverse"><path d="M 0 0 L 10 0 L 0 8 z"></path></marker></defs><defs><marker id="g6x0vy7cwo0w-stickTopArrowHead" refX="7.5" refY="7" markerUnits="userSpaceOnUse" markerWidth="12" markerHeight="12" orient="auto-start-reverse"><path d="M 0 0 L 7 7" stroke="black" stroke-width="1.5" fill="none"></path></marker></defs><defs><marker id="g6x0vy7cwo0w-stickBottomArrowHead" refX="7.5" refY="0" markerUnits="userSpaceOnUse" markerWidth="12" markerHeight="12" orient="auto-start-reverse"><path d="M 0 7 L 7 0" stroke="black" stroke-width="1.5" fill="none"></path></marker></defs><g data-et="control-structure" data-id="i19"><line x1="64" y1="725" x2="426" y2="725" class="loopLine"></line><line x1="426" y1="725" x2="426" y2="903" class="loopLine"></line><line x1="64" y1="903" x2="426" y2="903" class="loopLine"></line><line x1="64" y1="725" x2="64" y2="903" class="loopLine"></line><line x1="64" y1="819" x2="426" y2="819" class="loopLine" style="stroke-dasharray: 3, 3;"></line><polygon points="64,725 114,725 114,738 105.6,745 64,745" class="labelBox"></polygon><text x="89" y="738" text-anchor="middle" dominant-baseline="middle" alignment-baseline="middle" class="labelText" style="font-size: 16px; font-weight: 400;">alt</text><text x="270" y="743" text-anchor="middle" class="loopText" style="font-size: 16px; font-weight: 400;"><tspan x="270">[Perfil adotante]</tspan></text><text x="245" y="837" text-anchor="middle" class="sectionTitle" style="font-size: 16px; font-weight: 400;">[Perfil protetor]</text></g><g data-et="control-structure" data-id="i20"><line x1="54" y1="459" x2="974" y2="459" class="loopLine"></line><line x1="974" y1="459" x2="974" y2="913" class="loopLine"></line><line x1="54" y1="913" x2="974" y2="913" class="loopLine"></line><line x1="54" y1="459" x2="54" y2="913" class="loopLine"></line><line x1="54" y1="597" x2="974" y2="597" class="loopLine" style="stroke-dasharray: 3, 3;"></line><polygon points="54,459 104,459 104,472 95.6,479 54,479" class="labelBox"></polygon><text x="79" y="472" text-anchor="middle" dominant-baseline="middle" alignment-baseline="middle" class="labelText" style="font-size: 16px; font-weight: 400;">alt</text><text x="539" y="477" text-anchor="middle" class="loopText" style="font-size: 16px; font-weight: 400;"><tspan x="539">[Usuário não existe ou senha incorreta]</tspan></text><text x="514" y="615" text-anchor="middle" class="sectionTitle" style="font-size: 16px; font-weight: 400;">[Credenciais corretas]</text></g><g data-et="control-structure" data-id="i21"><line x1="44" y1="193" x2="984" y2="193" class="loopLine"></line><line x1="984" y1="193" x2="984" y2="923" class="loopLine"></line><line x1="44" y1="923" x2="984" y2="923" class="loopLine"></line><line x1="44" y1="193" x2="44" y2="923" class="loopLine"></line><line x1="44" y1="287" x2="984" y2="287" class="loopLine" style="stroke-dasharray: 3, 3;"></line><polygon points="44,193 94,193 94,206 85.6,213 44,213" class="labelBox"></polygon><text x="69" y="206" text-anchor="middle" dominant-baseline="middle" alignment-baseline="middle" class="labelText" style="font-size: 16px; font-weight: 400;">alt</text><text x="539" y="211" text-anchor="middle" class="loopText" style="font-size: 16px; font-weight: 400;"><tspan x="539">[Campos inválidos]</tspan></text><text x="514" y="305" text-anchor="middle" class="sectionTitle" style="font-size: 16px; font-weight: 400;">[Campos válidos]</text></g><g class="actor-man actor-top" name="U" data-et="participant" data-type="actor" data-id="U" style="stroke: rgb(77, 143, 203);"><line id="actor-man-torso0" x1="75" y1="25" x2="75" y2="45"></line><line id="actor-man-arms0" x1="57" y1="33" x2="93" y2="33"></line><line x1="57" y1="60" x2="75" y2="45"></line><line x1="75" y1="45" x2="91" y2="60"></line><circle cx="75" cy="10" r="15" width="150" height="65"></circle><text x="75" y="67.5" dominant-baseline="central" alignment-baseline="central" class="actor actor-man" style="text-anchor: middle; font-size: 16px; font-weight: 400;"><tspan x="75" dy="0">Usuário</tspan></text></g><text x="244" y="80" text-anchor="middle" dominant-baseline="middle" alignment-baseline="middle" class="messageText" dy="1em" style="font-size: 16px; font-weight: 400;">Informa e-mail e senha e toca em "Entrar"</text><line x1="82" y1="109" x2="411" y2="109" class="messageLine0" data-et="message" data-id="i1" data-from="U" data-to="T" stroke-width="2" stroke="none" marker-end="url(#g6x0vy7cwo0w-arrowhead)" style="fill: none;"></line><line x1="75" y1="109" x2="75" y2="109" stroke-width="0" marker-start="url(#g6x0vy7cwo0w-sequencenumber)"></line><text x="75" y="113" font-family="sans-serif" font-size="12px" text-anchor="middle" class="sequenceNumber">1</text><text x="416" y="124" text-anchor="middle" dominant-baseline="middle" alignment-baseline="middle" class="messageText" dy="1em" style="font-size: 16px; font-weight: 400;">Valida campos (obrigatórios e formato do e-mail)</text><path d="M 416,153 C 476,143 476,183 416,173" class="messageLine0" data-et="message" data-id="i2" data-from="T" data-to="T" stroke-width="2" stroke="none" marker-end="url(#g6x0vy7cwo0w-arrowhead)" x1="422" style="fill: none;"></path><line x1="415" y1="153" x2="415" y2="153" stroke-width="0" marker-start="url(#g6x0vy7cwo0w-sequencenumber)"></line><text x="415" y="157" font-family="sans-serif" font-size="12px" text-anchor="middle" class="sequenceNumber">2</text><text x="247" y="243" text-anchor="middle" dominant-baseline="middle" alignment-baseline="middle" class="messageText" dy="1em" style="font-size: 16px; font-weight: 400;">Mostra erro em cada campo</text><line x1="420" y1="272" x2="79" y2="272" class="messageLine1" data-et="message" data-id="i4" data-from="T" data-to="U" stroke-width="2" stroke="none" marker-end="url(#g6x0vy7cwo0w-arrowhead)" style="stroke-dasharray: 3, 3; fill: none;"></line><line x1="415" y1="272" x2="415" y2="272" stroke-width="0" marker-start="url(#g6x0vy7cwo0w-sequencenumber)"></line><text x="415" y="276" font-family="sans-serif" font-size="12px" text-anchor="middle" class="sequenceNumber">3</text><text x="556" y="332" text-anchor="middle" dominant-baseline="middle" alignment-baseline="middle" class="messageText" dy="1em" style="font-size: 16px; font-weight: 400;">login(email, senha)</text><line x1="422" y1="361" x2="696" y2="361" class="messageLine0" data-et="message" data-id="i6" data-from="T" data-to="A" stroke-width="2" stroke="none" marker-end="url(#g6x0vy7cwo0w-arrowhead)" style="fill: none;"></line><line x1="415" y1="361" x2="415" y2="361" stroke-width="0" marker-start="url(#g6x0vy7cwo0w-sequencenumber)"></line><text x="415" y="365" font-family="sans-serif" font-size="12px" text-anchor="middle" class="sequenceNumber">4</text><text x="830" y="376" text-anchor="middle" dominant-baseline="middle" alignment-baseline="middle" class="messageText" dy="1em" style="font-size: 16px; font-weight: 400;">Busca usuário pelo e-mail</text><line x1="707" y1="405" x2="959" y2="405" class="messageLine0" data-et="message" data-id="i7" data-from="A" data-to="B" stroke-width="2" stroke="none" marker-end="url(#g6x0vy7cwo0w-arrowhead)" style="fill: none;"></line><line x1="700" y1="405" x2="700" y2="405" stroke-width="0" marker-start="url(#g6x0vy7cwo0w-sequencenumber)"></line><text x="700" y="409" font-family="sans-serif" font-size="12px" text-anchor="middle" class="sequenceNumber">5</text><text x="833" y="420" text-anchor="middle" dominant-baseline="middle" alignment-baseline="middle" class="messageText" dy="1em" style="font-size: 16px; font-weight: 400;">Usuário (ou nenhum)</text><line x1="968" y1="449" x2="704" y2="449" class="messageLine1" data-et="message" data-id="i8" data-from="B" data-to="A" stroke-width="2" stroke="none" marker-end="url(#g6x0vy7cwo0w-arrowhead)" style="stroke-dasharray: 3, 3; fill: none;"></line><line x1="963" y1="449" x2="963" y2="449" stroke-width="0" marker-start="url(#g6x0vy7cwo0w-sequencenumber)"></line><text x="963" y="453" font-family="sans-serif" font-size="12px" text-anchor="middle" class="sequenceNumber">6</text><text x="559" y="509" text-anchor="middle" dominant-baseline="middle" alignment-baseline="middle" class="messageText" dy="1em" style="font-size: 16px; font-weight: 400;">erro "E-mail ou senha incorretos"</text><line x1="705" y1="538" x2="419" y2="538" class="messageLine1" data-et="message" data-id="i10" data-from="A" data-to="T" stroke-width="2" stroke="none" marker-end="url(#g6x0vy7cwo0w-arrowhead)" style="stroke-dasharray: 3, 3; fill: none;"></line><line x1="700" y1="538" x2="700" y2="538" stroke-width="0" marker-start="url(#g6x0vy7cwo0w-sequencenumber)"></line><text x="700" y="542" font-family="sans-serif" font-size="12px" text-anchor="middle" class="sequenceNumber">7</text><text x="247" y="553" text-anchor="middle" dominant-baseline="middle" alignment-baseline="middle" class="messageText" dy="1em" style="font-size: 16px; font-weight: 400;">Exibe alerta de erro</text><line x1="420" y1="582" x2="79" y2="582" class="messageLine1" data-et="message" data-id="i11" data-from="T" data-to="U" stroke-width="2" stroke="none" marker-end="url(#g6x0vy7cwo0w-arrowhead)" style="stroke-dasharray: 3, 3; fill: none;"></line><line x1="415" y1="582" x2="415" y2="582" stroke-width="0" marker-start="url(#g6x0vy7cwo0w-sequencenumber)"></line><text x="415" y="586" font-family="sans-serif" font-size="12px" text-anchor="middle" class="sequenceNumber">8</text><text x="830" y="642" text-anchor="middle" dominant-baseline="middle" alignment-baseline="middle" class="messageText" dy="1em" style="font-size: 16px; font-weight: 400;">Grava sessão (usuário logado)</text><line x1="707" y1="671" x2="959" y2="671" class="messageLine0" data-et="message" data-id="i13" data-from="A" data-to="B" stroke-width="2" stroke="none" marker-end="url(#g6x0vy7cwo0w-arrowhead)" style="fill: none;"></line><line x1="700" y1="671" x2="700" y2="671" stroke-width="0" marker-start="url(#g6x0vy7cwo0w-sequencenumber)"></line><text x="700" y="675" font-family="sans-serif" font-size="12px" text-anchor="middle" class="sequenceNumber">9</text><text x="559" y="686" text-anchor="middle" dominant-baseline="middle" alignment-baseline="middle" class="messageText" dy="1em" style="font-size: 16px; font-weight: 400;">Dados do usuário</text><line x1="705" y1="715" x2="419" y2="715" class="messageLine1" data-et="message" data-id="i14" data-from="A" data-to="T" stroke-width="2" stroke="none" marker-end="url(#g6x0vy7cwo0w-arrowhead)" style="stroke-dasharray: 3, 3; fill: none;"></line><line x1="700" y1="715" x2="700" y2="715" stroke-width="0" marker-start="url(#g6x0vy7cwo0w-sequencenumber)"></line><text x="700" y="719" font-family="sans-serif" font-size="12px" text-anchor="middle" class="sequenceNumber">10</text><text x="247" y="775" text-anchor="middle" dominant-baseline="middle" alignment-baseline="middle" class="messageText" dy="1em" style="font-size: 16px; font-weight: 400;">Abre a tela Início (lista de pets)</text><line x1="420" y1="804" x2="79" y2="804" class="messageLine1" data-et="message" data-id="i16" data-from="T" data-to="U" stroke-width="2" stroke="none" marker-end="url(#g6x0vy7cwo0w-arrowhead)" style="stroke-dasharray: 3, 3; fill: none;"></line><line x1="415" y1="804" x2="415" y2="804" stroke-width="0" marker-start="url(#g6x0vy7cwo0w-sequencenumber)"></line><text x="415" y="808" font-family="sans-serif" font-size="12px" text-anchor="middle" class="sequenceNumber">11</text><text x="247" y="864" text-anchor="middle" dominant-baseline="middle" alignment-baseline="middle" class="messageText" dy="1em" style="font-size: 16px; font-weight: 400;">Abre o Painel do protetor</text><line x1="420" y1="893" x2="79" y2="893" class="messageLine1" data-et="message" data-id="i18" data-from="T" data-to="U" stroke-width="2" stroke="none" marker-end="url(#g6x0vy7cwo0w-arrowhead)" style="stroke-dasharray: 3, 3; fill: none;"></line><line x1="415" y1="893" x2="415" y2="893" stroke-width="0" marker-start="url(#g6x0vy7cwo0w-sequencenumber)"></line><text x="415" y="897" font-family="sans-serif" font-size="12px" text-anchor="middle" class="sequenceNumber">12</text><g class="actor-man actor-bottom" name="U" style="stroke: rgb(77, 143, 203);"><line id="actor-man-torso3" x1="75" y1="968" x2="75" y2="988"></line><line id="actor-man-arms3" x1="57" y1="976" x2="93" y2="976"></line><line x1="57" y1="1003" x2="75" y2="988"></line><line x1="75" y1="988" x2="91" y2="1003"></line><circle cx="75" cy="953" r="15" width="150" height="65"></circle><text x="75" y="1010.5" dominant-baseline="central" alignment-baseline="central" class="actor actor-man" style="text-anchor: middle; font-size: 16px; font-weight: 400;"><tspan x="75" dy="0">Usuário</tspan></text></g></svg>